PathFileType	4	(X/Y/Z)	C:/Users/beibeiliu/ov580/test_trc/capture2\sequence.21_training_dense_left.trc
DataRate	CameraRate	NumFrames	NumMarkers	Units	OrigDataRate	OrigDataStartFrame	OrigNumFrames
120	120	8	19	mm	120	1	355
Frame#	Time	ThumbCMC			ThumbMCP			ThumbIP			ThumbTip			IndexMCP			IndexPIP			IndexTip			MiddleMCP			MiddlePIP			MiddleTip			RingMCP			RingPIP			RingTip			PinkyMCP			PinkyPIP			PinkyTip			BackHand1			BackHand2			BackHand3	
		X0	Y0	Z0	X1	Y1	Z1	X2	Y2	Z2	X3	Y3	Z3	X4	Y4	Z4	X5	Y5	Z5	X6	Y6	Z6	X7	Y7	Z7	X8	Y8	Z8	X9	Y9	Z9	X10	Y10	Z10	X11	Y11	Z11	X12	Y12	Z12	X13	Y13	Z13	X14	Y14	Z14	X15	Y15	Z15	X16	Y16	Z16	X17	Y17	Z17	X18	Y18	Z18	
0	0	-166.029	79.2184	1.65976	-133.361	88.6013	4.04091	-107.883	98.7929	-4.99591	-82.9894	100.007	-14.8206	-119.889	58.535	-51.2613	-94.1394	68.2363	-50.8348	-64.2547	76.2734	-40.2784	-108.049	46.2914	-35.6573	-95.4643	60.7193	-9.76609	-129.63	60.046	5.17905	-104.398	36.464	-19.9136	-103.463	51.1372	4.46378	-137.617	48.8585	10.4726	-106.682	20.9501	-4.92749	-112.204	37.7693	15.579	-145.244	40.2983	13.8191	-156.934	13.8676	-20.5892	-184.186	16.2147	5.29132	-178.727	42.9749	-19.0889	
1	0.00833333	-168.24	72.6264	-0.91317	-138.646	88.199	-1.89734	-115.777	94.9344	-11.7711	-92.0145	102.735	-22.6227	-123.445	56.3116	-54.9714	-96.0248	68.9304	-56.0638	-70.4251	80.2451	-46.2941	-108.853	49.357	-39.0671	-97.9811	64.8877	-17.1448	-131.738	60.1842	2.55939	-103.546	34.5115	-22.0534	-105.545	55.4028	-0.29772	-142.059	47.1028	6.51719	-107.353	22.2757	-9.91199	-114.43	43.2518	14.4685	-144.079	38.8882	16.5077	-154.766	8.25751	-15.5486	-178.855	10.1811	4.7675	-177.801	36.8938	-19.213	
2	0.0166667	-171.713	68.0465	-0.529869	-144.894	84.939	-3.41912	-119.566	99.1287	-18.8114	-103.313	103.932	-26.9383	-126.809	60.1907	-60.8844	-104.064	69.1738	-61.522	-82.1645	85.7656	-57.3177	-112.501	46.0347	-42.7997	-101.505	67.4598	-21.7491	-131.917	63.7312	-1.615	-107.642	38.3575	-28.7053	-109.931	58.4895	-2.33463	-139.932	45.6011	4.83909	-102.805	25.6371	-12.4597	-111.464	44.9749	10.7084	-140.866	37.7015	12.6743	-150.512	4.32197	-15.65	-172.985	6.80765	6.87355	-177.988	29.6226	-15.6872	
3	0.025	-171.488	66.4833	-5.98976	-145.791	82.4526	-8.07283	-126.536	97.5371	-21.4853	-111.277	106.97	-31.0208	-129.94	55.4666	-62.7927	-108.692	74.0412	-68.6914	-87.0439	83.434	-61.6869	-116.419	46.5023	-46.8251	-104.689	69.4251	-24.5926	-132.278	60.7052	-3.42495	-106.396	41.7286	-31.4971	-109.147	59.7218	-6.01251	-136.352	49.3313	3.2823	-105.236	27.8635	-17.0534	-111.147	49.8189	4.16716	-140.213	38.4613	13.2367	-145.073	4.06876	-17.5623	-165.157	-0.0440638	8.57602	-175.486	25.0927	-18.0862	
4	0.0333333	-171.956	58.7378	-1.76385	-146.637	81.5952	-10.9477	-131.875	99.1016	-23.2403	-115.849	109.927	-36.0871	-137.298	52.6391	-64.9389	-116.078	68.0114	-72.3841	-94.5284	86.6495	-69.9271	-115.018	50.698	-50.9353	-109.664	71.3885	-27.1866	-132.529	62.2351	-5.75372	-103.856	38.8281	-31.1049	-110.838	61.1987	-8.76575	-136.92	43.3162	1.70476	-98.8506	29.6483	-15.9346	-109.545	49.9447	0.247588	-137.924	37.0016	12.4524	-142.299	0.165308	-17.2245	-163.529	0.455931	6.31304	-172.487	20.8622	-16.2357	
5	0.0416667	-169.684	56.1444	-5.40642	-148.861	78.4123	-12.0814	-132.576	95.4878	-28.893	-120.078	109.618	-40.6352	-140.111	49.6172	-65.5543	-114.222	66.6213	-74.1206	-98.1028	84.867	-74.4398	-113.839	46.8831	-49.8455	-108.864	70.6053	-31.4706	-131.439	57.8416	-6.22751	-102.699	38.6961	-32.9932	-108.713	59.6075	-9.19487	-132.572	43.3939	2.39365	-98.5156	30.3605	-20.1502	-106.185	50.2418	-2.32212	-132.849	35.2339	10.8962	-142.679	0.125918	-15.083	-157.979	-2.92927	10.4577	-173.025	19.1491	-15.2052	
6	0.05	-170.596	55.2583	-5.4688	-149.915	78.8891	-14.0172	-136.152	92.8013	-26.5743	-124.025	105.72	-42.6791	-135.027	46.5758	-67.8626	-122.091	63.6316	-77.0461	-99.5816	81.1912	-78.7442	-113.152	45.633	-51.1724	-108.646	69.5132	-35.9121	-132.998	57.7466	-7.09794	-106.652	38.0536	-37.2694	-106.446	59.6624	-14.4274	-135.188	42.1211	-1.00409	-94.7041	30.0505	-21.1594	-106.723	50.2794	-0.81669	-130.762	34.5098	9.40832	-139.698	0.73259	-13.8091	-153.573	-5.59716	13.5654	-169.781	12.9434	-12.2188	
7	0.0583333	-171.838	52.1299	-0.973411	-151.269	76.1381	-12.3203	-138.555	94.3645	-33.3171	-129.699	107.47	-46.0413	-138.268	43.9761	-68.9527	-122.321	64.8262	-81.1303	-102.701	78.2401	-84.938	-115.254	45.6522	-53.5475	-109.012	68.715	-37.2159	-135.678	57.2403	-10.0466	-105.551	39.1377	-39.8245	-104.27	59.1309	-15.3126	-128.603	42.7692	-0.70581	-92.632	33.0709	-25.0192	-102.035	51.3791	-6.28829	-128.854	32.8366	6.53285	-132.439	-3.41183	-11.8597	-148.129	-6.22609	12.8208	-169.225	11.6877	-12.9694	
